<?xml version="1.0"?>
<svg xmlns="http://www.w3.org/2000/svg" id="Capa_1" enable-background="new 0 0 512.008 512.008" height="512px" viewBox="0 0 512.008 512.008" width="512px" class=""><g><path d="m510.87 192.555c-3.903-19.613-18.73-35.818-37.629-41.716l17.259-75.807c12.027-1.034 21.5-11.148 21.5-23.439 0-12.976-10.557-23.532-23.532-23.532s-23.532 10.557-23.532 23.532c0 8.366 4.392 15.721 10.987 19.895l-17.502 76.875c-9.27-.313-18.38 1.625-26.582 5.658v-80.129c9.308-3.139 16.032-11.946 16.032-22.3 0-12.976-10.557-23.532-23.532-23.532s-23.532 10.557-23.532 23.532c0 10.354 6.724 19.16 16.032 22.3v90.947c-10.253 10.365-16.032 24.293-16.032 39.059v96.194c0 16.914-10.404 31.539-25.282 37.604 5.29-12.68 8.217-26.583 8.217-41.158 0-50.665-19.03-98.911-53.584-135.85-34.901-37.31-81.749-58.754-131.911-60.381-96.778-3.13-181.018 66.468-195.936 161.909-6.813 43.583 4.989 87.868 32.377 121.501 8.963 11.006 19.206 20.413 30.439 28.087l-40.247 22.36c-15.347 8.526-24.88 24.727-24.88 42.283 0 4.142 3.358 7.5 7.5 7.5h368.742.001c27.696 0 53.738-10.787 73.322-30.371 19.585-19.585 30.371-45.625 30.371-73.323v-121.315c0-2.786 1.676-5.429 4.485-7.069 20.819-12.163 31.201-35.445 26.449-59.314zm-22.402-149.494c4.705 0 8.532 3.828 8.532 8.532s-3.828 8.532-8.532 8.532-8.532-3.828-8.532-8.532 3.827-8.532 8.532-8.532zm-64.129 0c4.705 0 8.532 3.828 8.532 8.532s-3.828 8.532-8.532 8.532-8.532-3.828-8.532-8.532 3.827-8.532 8.532-8.532zm52.515 195.856c-7.463 4.359-11.919 11.844-11.919 20.021v121.316c0 23.691-9.226 45.964-25.978 62.716s-39.025 25.978-62.716 25.978h-360.387c2.1-9.092 7.957-17.03 16.311-21.671l47.877-26.598c17.314 8.869 36.435 14.013 56.521 14.996 2.386.117 4.761.174 7.125.174 73.013-.001 135.143-55.057 143.026-128.198 3.03-28.115-5.449-56.429-23.264-77.681-16.578-19.776-39.62-31.617-64.88-33.341-16.997-1.161-33.968 2.173-49.066 9.64-3.713 1.836-5.234 6.335-3.397 10.048 1.836 3.713 6.334 5.235 10.048 3.397 12.722-6.293 27.038-9.099 41.394-8.121 21.152 1.444 40.474 11.392 54.406 28.012 15.208 18.142 22.441 42.357 19.846 66.438-7.289 67.623-66.366 117.991-134.505 114.648-35.698-1.746-68.007-18.241-90.976-46.446-24.706-30.338-35.345-70.327-29.188-109.712 13.75-87.97 91.4-152.132 180.628-149.231 46.153 1.497 89.282 21.255 121.443 55.636 31.946 34.15 49.539 78.757 49.539 125.603 0 50.865-41.381 92.246-92.246 92.246h-4.463c-4.142 0-7.5 3.358-7.5 7.5s3.358 7.5 7.5 7.5h4.463c37.424 0 70.425-19.272 89.619-48.409 28.073-2.964 49.692-26.752 49.692-55.284v-96.194c0-12.282 5.474-23.773 15.019-31.527 9.542-7.754 22.09-10.722 34.429-8.139 15.406 3.223 27.826 15.781 30.905 31.251 3.483 17.498-4.095 34.546-19.306 43.432z" data-original="#000000" class="active-path" data-old_color="#000000" fill="#0A0808"/><path d="m151.791 299.577c4.142 0 7.5-3.358 7.5-7.5 0-4.771 2.062-9.313 5.657-12.459 3.642-3.188 8.334-4.587 13.214-3.933 8.497 1.135 14.713 9.414 14.153 18.845-.656 11.032-5.648 21.094-14.059 28.332-8.392 7.221-19.139 10.647-30.268 9.639-22.159-2.003-38.536-23.222-36.505-47.3 1.504-17.854 9.081-34.933 21.332-48.089 2.823-3.032 2.654-7.777-.377-10.6-3.032-2.823-7.777-2.654-10.6.377-14.53 15.604-23.516 35.866-25.302 57.052-1.291 15.308 2.985 30.295 12.038 42.2 9.403 12.366 22.921 19.93 38.064 21.299 1.737.157 3.467.235 5.188.235 13.335 0 26.034-4.682 36.216-13.444 11.513-9.908 18.349-23.692 19.248-38.812 1.024-17.232-10.897-32.432-27.139-34.603-9.093-1.214-18.236 1.523-25.081 7.514-6.85 5.995-10.778 14.65-10.778 23.747-.001 4.142 3.356 7.5 7.499 7.5z" data-original="#000000" class="active-path" data-old_color="#000000" fill="#0A0808"/></g> </svg>
